<svg width="1382" height="180" viewBox="0 0 1382 180" fill="none" xmlns="http://www.w3.org/2000/svg">
<mask id="path-1-outside-1_115_15" maskUnits="userSpaceOnUse" x="-2" y="-2" width="1385" height="183" fill="black">
<rect fill="white" x="-2" y="-2" width="1385" height="183"/>
<path d="M0.25 177V2.45454H75.5909C88.5455 2.45454 99.8807 5.01136 109.597 10.125C119.313 15.2386 126.869 22.4261 132.267 31.6875C137.665 40.9489 140.364 51.7727 140.364 64.1591C140.364 76.6591 137.58 87.483 132.011 96.6307C126.5 105.778 118.744 112.824 108.744 117.767C98.8011 122.71 87.1818 125.182 73.8864 125.182H28.8864V88.3636H64.3409C69.9091 88.3636 74.6534 87.3977 78.5739 85.4659C82.5511 83.4773 85.5909 80.6648 87.6932 77.0284C89.8523 73.392 90.9318 69.1023 90.9318 64.1591C90.9318 59.1591 89.8523 54.8977 87.6932 51.375C85.5909 47.7955 82.5511 45.0682 78.5739 43.1932C74.6534 41.2614 69.9091 40.2954 64.3409 40.2954H47.6364V177H0.25ZM326.841 89.7273C326.841 109.159 323.063 125.551 315.506 138.903C307.949 152.199 297.75 162.284 284.909 169.159C272.068 175.977 257.75 179.386 241.955 179.386C226.045 179.386 211.67 175.949 198.83 169.074C186.045 162.142 175.875 152.028 168.318 138.733C160.818 125.381 157.068 109.045 157.068 89.7273C157.068 70.2955 160.818 53.9318 168.318 40.6364C175.875 27.2841 186.045 17.1989 198.83 10.3807C211.67 3.50568 226.045 0.0681753 241.955 0.0681753C257.75 0.0681753 272.068 3.50568 284.909 10.3807C297.75 17.1989 307.949 27.2841 315.506 40.6364C323.063 53.9318 326.841 70.2955 326.841 89.7273ZM278.091 89.7273C278.091 79.2727 276.699 70.4659 273.915 63.3068C271.188 56.0909 267.125 50.6364 261.727 46.9432C256.386 43.1932 249.795 41.3182 241.955 41.3182C234.114 41.3182 227.494 43.1932 222.097 46.9432C216.756 50.6364 212.693 56.0909 209.909 63.3068C207.182 70.4659 205.818 79.2727 205.818 89.7273C205.818 100.182 207.182 109.017 209.909 116.233C212.693 123.392 216.756 128.847 222.097 132.597C227.494 136.29 234.114 138.136 241.955 138.136C249.795 138.136 256.386 136.29 261.727 132.597C267.125 128.847 271.188 123.392 273.915 116.233C276.699 109.017 278.091 100.182 278.091 89.7273ZM348.766 177V2.45454H424.107C437.061 2.45454 448.396 4.8125 458.112 9.52841C467.828 14.2443 475.385 21.0341 480.783 29.8977C486.18 38.7614 488.879 49.3864 488.879 61.7727C488.879 74.2727 486.095 84.8125 480.527 93.392C475.016 101.972 467.26 108.449 457.26 112.824C447.317 117.199 435.697 119.386 422.402 119.386H377.402V82.5682H412.857C418.425 82.5682 423.169 81.8864 427.089 80.5227C431.067 79.1023 434.107 76.858 436.209 73.7898C438.368 70.7216 439.447 66.7159 439.447 61.7727C439.447 56.7727 438.368 52.7102 436.209 49.5852C434.107 46.4034 431.067 44.0739 427.089 42.5966C423.169 41.0625 418.425 40.2954 412.857 40.2954H396.152V177H348.766ZM451.038 96.8864L494.675 177H443.197L400.584 96.8864H451.038ZM504.305 40.6364V2.45454H656.01V40.6364H603.51V177H556.805V40.6364H504.305ZM673.844 177V2.45454H796.571V40.6364H721.23V70.6364H789.071V108.818H721.23V177H673.844ZM983.091 89.7273C983.091 109.159 979.313 125.551 971.756 138.903C964.199 152.199 954 162.284 941.159 169.159C928.318 175.977 914 179.386 898.205 179.386C882.295 179.386 867.92 175.949 855.08 169.074C842.295 162.142 832.125 152.028 824.568 138.733C817.068 125.381 813.318 109.045 813.318 89.7273C813.318 70.2955 817.068 53.9318 824.568 40.6364C832.125 27.2841 842.295 17.1989 855.08 10.3807C867.92 3.50568 882.295 0.0681753 898.205 0.0681753C914 0.0681753 928.318 3.50568 941.159 10.3807C954 17.1989 964.199 27.2841 971.756 40.6364C979.313 53.9318 983.091 70.2955 983.091 89.7273ZM934.341 89.7273C934.341 79.2727 932.949 70.4659 930.165 63.3068C927.438 56.0909 923.375 50.6364 917.977 46.9432C912.636 43.1932 906.045 41.3182 898.205 41.3182C890.364 41.3182 883.744 43.1932 878.347 46.9432C873.006 50.6364 868.943 56.0909 866.159 63.3068C863.432 70.4659 862.068 79.2727 862.068 89.7273C862.068 100.182 863.432 109.017 866.159 116.233C868.943 123.392 873.006 128.847 878.347 132.597C883.744 136.29 890.364 138.136 898.205 138.136C906.045 138.136 912.636 136.29 917.977 132.597C923.375 128.847 927.438 123.392 930.165 116.233C932.949 109.017 934.341 100.182 934.341 89.7273ZM1005.02 177V2.45454H1052.4V138.818H1122.97V177H1005.02ZM1189.51 2.45454V177H1142.12V2.45454H1189.51ZM1381.06 89.7273C1381.06 109.159 1377.28 125.551 1369.72 138.903C1362.17 152.199 1351.97 162.284 1339.13 169.159C1326.29 175.977 1311.97 179.386 1296.17 179.386C1280.26 179.386 1265.89 175.949 1253.05 169.074C1240.26 162.142 1230.09 152.028 1222.54 138.733C1215.04 125.381 1211.29 109.045 1211.29 89.7273C1211.29 70.2955 1215.04 53.9318 1222.54 40.6364C1230.09 27.2841 1240.26 17.1989 1253.05 10.3807C1265.89 3.50568 1280.26 0.0681753 1296.17 0.0681753C1311.97 0.0681753 1326.29 3.50568 1339.13 10.3807C1351.97 17.1989 1362.17 27.2841 1369.72 40.6364C1377.28 53.9318 1381.06 70.2955 1381.06 89.7273ZM1332.31 89.7273C1332.31 79.2727 1330.92 70.4659 1328.13 63.3068C1325.41 56.0909 1321.34 50.6364 1315.95 46.9432C1310.61 43.1932 1304.01 41.3182 1296.17 41.3182C1288.33 41.3182 1281.71 43.1932 1276.32 46.9432C1270.97 50.6364 1266.91 56.0909 1264.13 63.3068C1261.4 70.4659 1260.04 79.2727 1260.04 89.7273C1260.04 100.182 1261.4 109.017 1264.13 116.233C1266.91 123.392 1270.97 128.847 1276.32 132.597C1281.71 136.29 1288.33 138.136 1296.17 138.136C1304.01 138.136 1310.61 136.29 1315.95 132.597C1321.34 128.847 1325.41 123.392 1328.13 116.233C1330.92 109.017 1332.31 100.182 1332.31 89.7273Z"/>
</mask>
<path d="M0.25 177V2.45454H75.5909C88.5455 2.45454 99.8807 5.01136 109.597 10.125C119.313 15.2386 126.869 22.4261 132.267 31.6875C137.665 40.9489 140.364 51.7727 140.364 64.1591C140.364 76.6591 137.58 87.483 132.011 96.6307C126.5 105.778 118.744 112.824 108.744 117.767C98.8011 122.71 87.1818 125.182 73.8864 125.182H28.8864V88.3636H64.3409C69.9091 88.3636 74.6534 87.3977 78.5739 85.4659C82.5511 83.4773 85.5909 80.6648 87.6932 77.0284C89.8523 73.392 90.9318 69.1023 90.9318 64.1591C90.9318 59.1591 89.8523 54.8977 87.6932 51.375C85.5909 47.7955 82.5511 45.0682 78.5739 43.1932C74.6534 41.2614 69.9091 40.2954 64.3409 40.2954H47.6364V177H0.25ZM326.841 89.7273C326.841 109.159 323.063 125.551 315.506 138.903C307.949 152.199 297.75 162.284 284.909 169.159C272.068 175.977 257.75 179.386 241.955 179.386C226.045 179.386 211.67 175.949 198.83 169.074C186.045 162.142 175.875 152.028 168.318 138.733C160.818 125.381 157.068 109.045 157.068 89.7273C157.068 70.2955 160.818 53.9318 168.318 40.6364C175.875 27.2841 186.045 17.1989 198.83 10.3807C211.67 3.50568 226.045 0.0681753 241.955 0.0681753C257.75 0.0681753 272.068 3.50568 284.909 10.3807C297.75 17.1989 307.949 27.2841 315.506 40.6364C323.063 53.9318 326.841 70.2955 326.841 89.7273ZM278.091 89.7273C278.091 79.2727 276.699 70.4659 273.915 63.3068C271.188 56.0909 267.125 50.6364 261.727 46.9432C256.386 43.1932 249.795 41.3182 241.955 41.3182C234.114 41.3182 227.494 43.1932 222.097 46.9432C216.756 50.6364 212.693 56.0909 209.909 63.3068C207.182 70.4659 205.818 79.2727 205.818 89.7273C205.818 100.182 207.182 109.017 209.909 116.233C212.693 123.392 216.756 128.847 222.097 132.597C227.494 136.29 234.114 138.136 241.955 138.136C249.795 138.136 256.386 136.29 261.727 132.597C267.125 128.847 271.188 123.392 273.915 116.233C276.699 109.017 278.091 100.182 278.091 89.7273ZM348.766 177V2.45454H424.107C437.061 2.45454 448.396 4.8125 458.112 9.52841C467.828 14.2443 475.385 21.0341 480.783 29.8977C486.18 38.7614 488.879 49.3864 488.879 61.7727C488.879 74.2727 486.095 84.8125 480.527 93.392C475.016 101.972 467.26 108.449 457.26 112.824C447.317 117.199 435.697 119.386 422.402 119.386H377.402V82.5682H412.857C418.425 82.5682 423.169 81.8864 427.089 80.5227C431.067 79.1023 434.107 76.858 436.209 73.7898C438.368 70.7216 439.447 66.7159 439.447 61.7727C439.447 56.7727 438.368 52.7102 436.209 49.5852C434.107 46.4034 431.067 44.0739 427.089 42.5966C423.169 41.0625 418.425 40.2954 412.857 40.2954H396.152V177H348.766ZM451.038 96.8864L494.675 177H443.197L400.584 96.8864H451.038ZM504.305 40.6364V2.45454H656.01V40.6364H603.51V177H556.805V40.6364H504.305ZM673.844 177V2.45454H796.571V40.6364H721.23V70.6364H789.071V108.818H721.23V177H673.844ZM983.091 89.7273C983.091 109.159 979.313 125.551 971.756 138.903C964.199 152.199 954 162.284 941.159 169.159C928.318 175.977 914 179.386 898.205 179.386C882.295 179.386 867.92 175.949 855.08 169.074C842.295 162.142 832.125 152.028 824.568 138.733C817.068 125.381 813.318 109.045 813.318 89.7273C813.318 70.2955 817.068 53.9318 824.568 40.6364C832.125 27.2841 842.295 17.1989 855.08 10.3807C867.92 3.50568 882.295 0.0681753 898.205 0.0681753C914 0.0681753 928.318 3.50568 941.159 10.3807C954 17.1989 964.199 27.2841 971.756 40.6364C979.313 53.9318 983.091 70.2955 983.091 89.7273ZM934.341 89.7273C934.341 79.2727 932.949 70.4659 930.165 63.3068C927.438 56.0909 923.375 50.6364 917.977 46.9432C912.636 43.1932 906.045 41.3182 898.205 41.3182C890.364 41.3182 883.744 43.1932 878.347 46.9432C873.006 50.6364 868.943 56.0909 866.159 63.3068C863.432 70.4659 862.068 79.2727 862.068 89.7273C862.068 100.182 863.432 109.017 866.159 116.233C868.943 123.392 873.006 128.847 878.347 132.597C883.744 136.29 890.364 138.136 898.205 138.136C906.045 138.136 912.636 136.29 917.977 132.597C923.375 128.847 927.438 123.392 930.165 116.233C932.949 109.017 934.341 100.182 934.341 89.7273ZM1005.02 177V2.45454H1052.4V138.818H1122.97V177H1005.02ZM1189.51 2.45454V177H1142.12V2.45454H1189.51ZM1381.06 89.7273C1381.06 109.159 1377.28 125.551 1369.72 138.903C1362.17 152.199 1351.97 162.284 1339.13 169.159C1326.29 175.977 1311.97 179.386 1296.17 179.386C1280.26 179.386 1265.89 175.949 1253.05 169.074C1240.26 162.142 1230.09 152.028 1222.54 138.733C1215.04 125.381 1211.29 109.045 1211.29 89.7273C1211.29 70.2955 1215.04 53.9318 1222.54 40.6364C1230.09 27.2841 1240.26 17.1989 1253.05 10.3807C1265.89 3.50568 1280.26 0.0681753 1296.17 0.0681753C1311.97 0.0681753 1326.29 3.50568 1339.13 10.3807C1351.97 17.1989 1362.17 27.2841 1369.72 40.6364C1377.28 53.9318 1381.06 70.2955 1381.06 89.7273ZM1332.31 89.7273C1332.31 79.2727 1330.92 70.4659 1328.13 63.3068C1325.41 56.0909 1321.34 50.6364 1315.95 46.9432C1310.61 43.1932 1304.01 41.3182 1296.17 41.3182C1288.33 41.3182 1281.71 43.1932 1276.32 46.9432C1270.97 50.6364 1266.91 56.0909 1264.13 63.3068C1261.4 70.4659 1260.04 79.2727 1260.04 89.7273C1260.04 100.182 1261.4 109.017 1264.13 116.233C1266.91 123.392 1270.97 128.847 1276.32 132.597C1281.71 136.29 1288.33 138.136 1296.17 138.136C1304.01 138.136 1310.61 136.29 1315.95 132.597C1321.34 128.847 1325.41 123.392 1328.13 116.233C1330.92 109.017 1332.31 100.182 1332.31 89.7273Z" fill="url(#paint0_linear_115_15)"/>
<path d="M0.25 177H-1.25V178.5H0.25V177ZM0.25 2.45454V0.95454H-1.25V2.45454H0.25ZM109.597 10.125L108.898 11.4524L108.898 11.4524L109.597 10.125ZM132.267 31.6875L133.563 30.9322L133.563 30.9322L132.267 31.6875ZM132.011 96.6307L130.73 95.8508L130.727 95.8566L132.011 96.6307ZM108.744 117.767L108.08 116.422L108.077 116.424L108.744 117.767ZM28.8864 125.182H27.3864V126.682H28.8864V125.182ZM28.8864 88.3636V86.8636H27.3864V88.3636H28.8864ZM78.5739 85.4659L79.2369 86.8114L79.2447 86.8075L78.5739 85.4659ZM87.6932 77.0284L86.4034 76.2626L86.3989 76.2701L86.3946 76.2777L87.6932 77.0284ZM87.6932 51.375L86.3998 52.1346L86.4069 52.1468L86.4143 52.1588L87.6932 51.375ZM78.5739 43.1932L77.9109 44.5387L77.9225 44.5444L77.9342 44.55L78.5739 43.1932ZM47.6364 40.2954V38.7954H46.1364V40.2954H47.6364ZM47.6364 177V178.5H49.1364V177H47.6364ZM1.75 177V2.45454H-1.25V177H1.75ZM0.25 3.95454H75.5909V0.95454H0.25V3.95454ZM75.5909 3.95454C88.3458 3.95454 99.4331 6.47087 108.898 11.4524L110.295 8.79762C100.328 3.55185 88.7452 0.95454 75.5909 0.95454V3.95454ZM108.898 11.4524C118.371 16.4384 125.719 23.4305 130.971 32.4428L133.563 30.9322C128.02 21.4218 120.254 14.0388 110.295 8.79762L108.898 11.4524ZM130.971 32.4428C136.216 41.4413 138.864 51.9963 138.864 64.1591H141.864C141.864 51.5492 139.114 40.4565 133.563 30.9322L130.971 32.4428ZM138.864 64.1591C138.864 76.4306 136.133 86.9749 130.73 95.8508L133.293 97.4106C139.026 87.991 141.864 76.8875 141.864 64.1591H138.864ZM130.727 95.8566C125.37 104.748 117.835 111.6 108.08 116.422L109.409 119.112C119.654 114.047 127.63 106.809 133.296 97.4048L130.727 95.8566ZM108.077 116.424C98.3779 121.245 86.9954 123.682 73.8864 123.682V126.682C87.3683 126.682 99.2244 124.175 109.412 119.11L108.077 116.424ZM73.8864 123.682H28.8864V126.682H73.8864V123.682ZM30.3864 125.182V88.3636H27.3864V125.182H30.3864ZM28.8864 89.8636H64.3409V86.8636H28.8864V89.8636ZM64.3409 89.8636C70.0779 89.8636 75.0616 88.8688 79.2369 86.8114L77.9109 84.1204C74.2452 85.9266 69.7403 86.8636 64.3409 86.8636V89.8636ZM79.2447 86.8075C83.4683 84.6957 86.7338 81.6849 88.9918 77.7792L86.3946 76.2777C84.448 79.6446 81.6339 82.2588 77.903 84.1243L79.2447 86.8075ZM88.983 77.7942C91.3014 73.8895 92.4318 69.3257 92.4318 64.1591H89.4318C89.4318 68.8788 88.4032 72.8946 86.4034 76.2626L88.983 77.7942ZM92.4318 64.1591C92.4318 58.9408 91.3035 54.395 88.9721 50.5912L86.4143 52.1588C88.4011 55.4004 89.4318 59.3774 89.4318 64.1591H92.4318ZM88.9866 50.6154C86.7222 46.7597 83.4468 43.8321 79.2135 41.8364L77.9342 44.55C81.6555 46.3043 84.4596 48.8312 86.3998 52.1346L88.9866 50.6154ZM79.2369 41.8477C75.0616 39.7903 70.0779 38.7954 64.3409 38.7954V41.7954C69.7403 41.7954 74.2452 42.7324 77.9109 44.5387L79.2369 41.8477ZM64.3409 38.7954H47.6364V41.7954H64.3409V38.7954ZM46.1364 40.2954V177H49.1364V40.2954H46.1364ZM47.6364 175.5H0.25V178.5H47.6364V175.5ZM315.506 138.903L316.81 139.645L316.811 139.642L315.506 138.903ZM284.909 169.159L285.613 170.484L285.617 170.481L284.909 169.159ZM198.83 169.074L198.115 170.393L198.122 170.396L198.83 169.074ZM168.318 138.733L167.01 139.468L167.014 139.474L168.318 138.733ZM168.318 40.6364L167.013 39.8975L167.012 39.8994L168.318 40.6364ZM198.83 10.3807L199.535 11.7042L199.538 11.7031L198.83 10.3807ZM284.909 10.3807L284.201 11.7031L284.206 11.7055L284.909 10.3807ZM315.506 40.6364L314.2 41.3752L314.202 41.3776L315.506 40.6364ZM273.915 63.3068L272.512 63.8371L272.514 63.8438L272.517 63.8505L273.915 63.3068ZM261.727 46.9432L260.865 48.1708L260.873 48.176L260.88 48.1811L261.727 46.9432ZM222.097 46.9432L222.95 48.1769L222.952 48.1751L222.097 46.9432ZM209.909 63.3068L208.51 62.7669L208.507 62.7728L209.909 63.3068ZM209.909 116.233L208.506 116.763L208.508 116.77L208.511 116.777L209.909 116.233ZM222.097 132.597L221.235 133.824L221.242 133.829L221.25 133.835L222.097 132.597ZM261.727 132.597L262.58 133.83L262.583 133.828L261.727 132.597ZM273.915 116.233L272.515 115.693L272.513 115.699L273.915 116.233ZM325.341 89.7273C325.341 108.968 321.6 125.09 314.2 138.165L316.811 139.642C324.525 126.012 328.341 109.35 328.341 89.7273H325.341ZM314.202 138.162C306.777 151.224 296.78 161.102 284.201 167.837L285.617 170.481C298.72 163.466 309.12 153.173 316.81 139.645L314.202 138.162ZM284.206 167.834C271.6 174.528 257.526 177.886 241.955 177.886V180.886C257.974 180.886 272.537 177.427 285.613 170.484L284.206 167.834ZM241.955 177.886C226.269 177.886 212.141 174.499 199.538 167.751L198.122 170.396C211.2 177.398 225.822 180.886 241.955 180.886V177.886ZM199.545 167.755C187.02 160.964 177.048 151.057 169.622 137.992L167.014 139.474C174.702 153 185.071 163.32 198.115 170.392L199.545 167.755ZM169.626 137.998C162.281 124.922 158.568 108.854 158.568 89.7273H155.568C155.568 109.237 159.356 125.84 167.01 139.468L169.626 137.998ZM158.568 89.7273C158.568 70.4846 162.282 54.3905 169.625 41.3733L167.012 39.8994C159.355 53.4731 155.568 70.1063 155.568 89.7273H158.568ZM169.624 41.3752C177.049 28.2555 187.018 18.3803 199.535 11.7042L198.124 9.05715C185.073 16.0174 174.701 26.3127 167.013 39.8975L169.624 41.3752ZM199.538 11.7031C212.141 4.95519 226.269 1.56818 241.955 1.56818V-1.43182C225.822 -1.43182 211.2 2.05616 198.122 9.05828L199.538 11.7031ZM241.955 1.56818C257.524 1.56818 271.596 4.95436 284.201 11.7031L285.617 9.05828C272.54 2.05699 257.976 -1.43182 241.955 -1.43182V1.56818ZM284.206 11.7055C296.78 18.3821 306.776 28.2572 314.2 41.3752L316.811 39.8975C309.122 26.311 298.72 16.0156 285.613 9.05585L284.206 11.7055ZM314.202 41.3776C321.6 54.3938 325.341 70.4863 325.341 89.7273H328.341C328.341 70.1046 324.525 53.4698 316.81 39.8952L314.202 41.3776ZM279.591 89.7273C279.591 79.1496 278.184 70.1458 275.313 62.7631L272.517 63.8505C275.214 70.786 276.591 79.3959 276.591 89.7273H279.591ZM275.318 62.7765C272.502 55.3262 268.268 49.6012 262.574 45.7052L260.88 48.1811C265.982 51.6715 269.873 56.8556 272.512 63.8371L275.318 62.7765ZM262.589 45.7156C256.948 41.755 250.041 39.8182 241.955 39.8182V42.8182C249.55 42.8182 255.824 44.6313 260.865 48.1708L262.589 45.7156ZM241.955 39.8182C233.868 39.8182 226.935 41.7552 221.241 45.7113L222.952 48.1751C228.054 44.6311 234.359 42.8182 241.955 42.8182V39.8182ZM221.243 45.7094C215.611 49.6044 211.381 55.3248 208.51 62.7669L211.309 63.8468C214.005 56.857 217.901 51.6683 222.95 48.1769L221.243 45.7094ZM208.507 62.7728C205.696 70.1522 204.318 79.1524 204.318 89.7273H207.318C207.318 79.3931 208.667 70.7796 211.311 63.8408L208.507 62.7728ZM204.318 89.7273C204.318 100.303 205.696 109.329 208.506 116.763L211.312 115.703C208.667 108.705 207.318 100.061 207.318 89.7273H204.318ZM208.511 116.777C211.383 124.162 215.611 129.876 221.235 133.824L222.959 131.369C217.9 127.817 214.003 122.622 211.307 115.689L208.511 116.777ZM221.25 133.835C226.943 137.73 233.873 139.636 241.955 139.636V136.636C234.355 136.636 228.046 134.85 222.944 131.359L221.25 133.835ZM241.955 139.636C250.036 139.636 256.941 137.73 262.58 133.83L260.874 131.363C255.832 134.849 249.555 136.636 241.955 136.636V139.636ZM262.583 133.828C268.268 129.879 272.5 124.16 275.317 116.767L272.513 115.699C269.875 122.624 265.982 127.814 260.871 131.365L262.583 133.828ZM275.314 116.773C278.184 109.336 279.591 100.306 279.591 89.7273H276.591C276.591 100.058 275.214 108.698 272.515 115.693L275.314 116.773ZM348.766 177H347.266V178.5H348.766V177ZM348.766 2.45454V0.95454H347.266V2.45454H348.766ZM480.783 29.8977L482.064 29.1175L482.064 29.1175L480.783 29.8977ZM480.527 93.392L479.269 92.5754L479.265 92.5813L480.527 93.392ZM457.26 112.824L456.659 111.45L456.656 111.451L457.26 112.824ZM377.402 119.386H375.902V120.886H377.402V119.386ZM377.402 82.5682V81.0682H375.902V82.5682H377.402ZM427.089 80.5227L427.582 81.9395L427.594 81.9353L427.089 80.5227ZM436.209 73.7898L434.982 72.9265L434.977 72.9342L434.971 72.9419L436.209 73.7898ZM436.209 49.5852L434.957 50.4121L434.966 50.4251L434.975 50.4379L436.209 49.5852ZM427.089 42.5966L426.543 43.9934L426.555 43.9982L426.567 44.0027L427.089 42.5966ZM396.152 40.2954V38.7954H394.652V40.2954H396.152ZM396.152 177V178.5H397.652V177H396.152ZM451.038 96.8864L452.356 96.1689L451.929 95.3864H451.038V96.8864ZM494.675 177V178.5H497.2L495.992 176.283L494.675 177ZM443.197 177L441.873 177.704L442.296 178.5H443.197V177ZM400.584 96.8864V95.3864H398.087L399.259 97.5908L400.584 96.8864ZM350.266 177V2.45454H347.266V177H350.266ZM348.766 3.95454H424.107V0.95454H348.766V3.95454ZM424.107 3.95454C436.879 3.95454 447.982 6.27885 457.457 10.8778L458.767 8.17897C448.81 3.34614 437.243 0.95454 424.107 0.95454V3.95454ZM457.457 10.8778C466.925 15.4734 474.26 22.0705 479.502 30.6779L482.064 29.1175C476.51 19.9977 468.731 13.0152 458.767 8.17897L457.457 10.8778ZM479.502 30.6779C484.731 39.2645 487.379 49.6079 487.379 61.7727H490.379C490.379 49.1648 487.63 38.2582 482.064 29.1175L479.502 30.6779ZM487.379 61.7727C487.379 74.0477 484.647 84.2882 479.269 92.5754L481.785 94.2086C487.543 85.3368 490.379 74.4978 490.379 61.7727H487.379ZM479.265 92.5813C473.925 100.894 466.408 107.184 456.659 111.45L457.861 114.198C468.112 109.713 476.106 103.049 481.789 94.2028L479.265 92.5813ZM456.656 111.451C446.941 115.726 435.535 117.886 422.402 117.886V120.886C435.86 120.886 447.693 118.672 457.864 114.197L456.656 111.451ZM422.402 117.886H377.402V120.886H422.402V117.886ZM378.902 119.386V82.5682H375.902V119.386H378.902ZM377.402 84.0682H412.857V81.0682H377.402V84.0682ZM412.857 84.0682C418.539 84.0682 423.46 83.3734 427.582 81.9395L426.597 79.106C422.878 80.3993 418.311 81.0682 412.857 81.0682V84.0682ZM427.594 81.9353C431.827 80.4236 435.142 78.0011 437.446 74.6376L434.971 72.9419C433.071 75.7148 430.307 77.781 426.585 79.1101L427.594 81.9353ZM437.436 74.653C439.821 71.2628 440.947 66.9278 440.947 61.7727H437.947C437.947 66.504 436.915 70.1803 434.982 72.9265L437.436 74.653ZM440.947 61.7727C440.947 56.5633 439.822 52.1765 437.443 48.7326L434.975 50.4379C436.913 53.2439 437.947 56.9821 437.947 61.7727H440.947ZM437.46 48.7583C435.163 45.2812 431.852 42.7655 427.612 41.1904L426.567 44.0027C430.281 45.3823 433.05 47.5256 434.957 50.4121L437.46 48.7583ZM427.636 41.1997C423.495 39.5794 418.555 38.7954 412.857 38.7954V41.7954C418.295 41.7954 422.843 42.5456 426.543 43.9934L427.636 41.1997ZM412.857 38.7954H396.152V41.7954H412.857V38.7954ZM394.652 40.2954V177H397.652V40.2954H394.652ZM396.152 175.5H348.766V178.5H396.152V175.5ZM449.721 97.6039L493.357 177.717L495.992 176.283L452.356 96.1689L449.721 97.6039ZM494.675 175.5H443.197V178.5H494.675V175.5ZM444.522 176.296L401.908 96.1819L399.259 97.5908L441.873 177.704L444.522 176.296ZM400.584 98.3864H451.038V95.3864H400.584V98.3864ZM504.305 40.6364H502.805V42.1364H504.305V40.6364ZM504.305 2.45454V0.95454H502.805V2.45454H504.305ZM656.01 2.45454H657.51V0.95454H656.01V2.45454ZM656.01 40.6364V42.1364H657.51V40.6364H656.01ZM603.51 40.6364V39.1364H602.01V40.6364H603.51ZM603.51 177V178.5H605.01V177H603.51ZM556.805 177H555.305V178.5H556.805V177ZM556.805 40.6364H558.305V39.1364H556.805V40.6364ZM505.805 40.6364V2.45454H502.805V40.6364H505.805ZM504.305 3.95454H656.01V0.95454H504.305V3.95454ZM654.51 2.45454V40.6364H657.51V2.45454H654.51ZM656.01 39.1364H603.51V42.1364H656.01V39.1364ZM602.01 40.6364V177H605.01V40.6364H602.01ZM603.51 175.5H556.805V178.5H603.51V175.5ZM558.305 177V40.6364H555.305V177H558.305ZM556.805 39.1364H504.305V42.1364H556.805V39.1364ZM673.844 177H672.344V178.5H673.844V177ZM673.844 2.45454V0.95454H672.344V2.45454H673.844ZM796.571 2.45454H798.071V0.95454H796.571V2.45454ZM796.571 40.6364V42.1364H798.071V40.6364H796.571ZM721.23 40.6364V39.1364H719.73V40.6364H721.23ZM721.23 70.6364H719.73V72.1364H721.23V70.6364ZM789.071 70.6364H790.571V69.1364H789.071V70.6364ZM789.071 108.818V110.318H790.571V108.818H789.071ZM721.23 108.818V107.318H719.73V108.818H721.23ZM721.23 177V178.5H722.73V177H721.23ZM675.344 177V2.45454H672.344V177H675.344ZM673.844 3.95454H796.571V0.95454H673.844V3.95454ZM795.071 2.45454V40.6364H798.071V2.45454H795.071ZM796.571 39.1364H721.23V42.1364H796.571V39.1364ZM719.73 40.6364V70.6364H722.73V40.6364H719.73ZM721.23 72.1364H789.071V69.1364H721.23V72.1364ZM787.571 70.6364V108.818H790.571V70.6364H787.571ZM789.071 107.318H721.23V110.318H789.071V107.318ZM719.73 108.818V177H722.73V108.818H719.73ZM721.23 175.5H673.844V178.5H721.23V175.5ZM971.756 138.903L973.06 139.645L973.061 139.642L971.756 138.903ZM941.159 169.159L941.863 170.484L941.867 170.481L941.159 169.159ZM855.08 169.074L854.365 170.393L854.372 170.396L855.08 169.074ZM824.568 138.733L823.26 139.468L823.264 139.474L824.568 138.733ZM824.568 40.6364L823.263 39.8975L823.262 39.8994L824.568 40.6364ZM855.08 10.3807L855.785 11.7042L855.788 11.7031L855.08 10.3807ZM941.159 10.3807L940.451 11.7031L940.456 11.7055L941.159 10.3807ZM971.756 40.6364L970.45 41.3752L970.452 41.3776L971.756 40.6364ZM930.165 63.3068L928.762 63.8371L928.764 63.8438L928.767 63.8505L930.165 63.3068ZM917.977 46.9432L917.115 48.1708L917.123 48.176L917.13 48.1811L917.977 46.9432ZM878.347 46.9432L879.2 48.1769L879.202 48.1751L878.347 46.9432ZM866.159 63.3068L864.76 62.7669L864.757 62.7728L866.159 63.3068ZM866.159 116.233L864.756 116.763L864.758 116.77L864.761 116.777L866.159 116.233ZM878.347 132.597L877.485 133.824L877.492 133.829L877.5 133.835L878.347 132.597ZM917.977 132.597L918.83 133.83L918.833 133.828L917.977 132.597ZM930.165 116.233L928.765 115.693L928.763 115.699L930.165 116.233ZM981.591 89.7273C981.591 108.968 977.85 125.09 970.45 138.165L973.061 139.642C980.775 126.012 984.591 109.35 984.591 89.7273H981.591ZM970.452 138.162C963.027 151.224 953.03 161.102 940.451 167.837L941.867 170.481C954.97 163.466 965.37 153.173 973.06 139.645L970.452 138.162ZM940.456 167.834C927.85 174.528 913.776 177.886 898.205 177.886V180.886C914.224 180.886 928.787 177.427 941.863 170.484L940.456 167.834ZM898.205 177.886C882.519 177.886 868.391 174.499 855.788 167.751L854.372 170.396C867.45 177.398 882.072 180.886 898.205 180.886V177.886ZM855.795 167.755C843.27 160.964 833.298 151.057 825.872 137.992L823.264 139.474C830.952 153 841.321 163.32 854.365 170.392L855.795 167.755ZM825.876 137.998C818.531 124.922 814.818 108.854 814.818 89.7273H811.818C811.818 109.237 815.606 125.84 823.26 139.468L825.876 137.998ZM814.818 89.7273C814.818 70.4846 818.532 54.3905 825.875 41.3733L823.262 39.8994C815.605 53.4731 811.818 70.1063 811.818 89.7273H814.818ZM825.874 41.3752C833.299 28.2555 843.268 18.3803 855.785 11.7042L854.374 9.05715C841.323 16.0174 830.951 26.3127 823.263 39.8975L825.874 41.3752ZM855.788 11.7031C868.391 4.95519 882.519 1.56818 898.205 1.56818V-1.43182C882.072 -1.43182 867.45 2.05616 854.372 9.05828L855.788 11.7031ZM898.205 1.56818C913.774 1.56818 927.846 4.95436 940.451 11.7031L941.867 9.05828C928.79 2.05699 914.226 -1.43182 898.205 -1.43182V1.56818ZM940.456 11.7055C953.03 18.3821 963.026 28.2572 970.45 41.3752L973.061 39.8975C965.372 26.311 954.97 16.0156 941.863 9.05585L940.456 11.7055ZM970.452 41.3776C977.85 54.3938 981.591 70.4863 981.591 89.7273H984.591C984.591 70.1046 980.775 53.4698 973.06 39.8952L970.452 41.3776ZM935.841 89.7273C935.841 79.1496 934.434 70.1458 931.563 62.7631L928.767 63.8505C931.464 70.786 932.841 79.3959 932.841 89.7273H935.841ZM931.568 62.7765C928.752 55.3262 924.518 49.6012 918.824 45.7052L917.13 48.1811C922.232 51.6715 926.123 56.8556 928.762 63.8371L931.568 62.7765ZM918.839 45.7156C913.198 41.755 906.291 39.8182 898.205 39.8182V42.8182C905.8 42.8182 912.074 44.6313 917.115 48.1708L918.839 45.7156ZM898.205 39.8182C890.118 39.8182 883.185 41.7552 877.491 45.7113L879.202 48.1751C884.304 44.6311 890.609 42.8182 898.205 42.8182V39.8182ZM877.493 45.7094C871.861 49.6044 867.631 55.3248 864.76 62.7669L867.559 63.8468C870.255 56.857 874.151 51.6683 879.2 48.1769L877.493 45.7094ZM864.757 62.7728C861.946 70.1522 860.568 79.1524 860.568 89.7273H863.568C863.568 79.3931 864.917 70.7796 867.561 63.8408L864.757 62.7728ZM860.568 89.7273C860.568 100.303 861.946 109.329 864.756 116.763L867.562 115.703C864.917 108.705 863.568 100.061 863.568 89.7273H860.568ZM864.761 116.777C867.633 124.162 871.861 129.876 877.485 133.824L879.209 131.369C874.15 127.817 870.253 122.622 867.557 115.689L864.761 116.777ZM877.5 133.835C883.193 137.73 890.123 139.636 898.205 139.636V136.636C890.605 136.636 884.296 134.85 879.194 131.359L877.5 133.835ZM898.205 139.636C906.286 139.636 913.191 137.73 918.83 133.83L917.124 131.363C912.082 134.849 905.805 136.636 898.205 136.636V139.636ZM918.833 133.828C924.518 129.879 928.75 124.16 931.567 116.767L928.763 115.699C926.125 122.624 922.232 127.814 917.121 131.365L918.833 133.828ZM931.564 116.773C934.434 109.336 935.841 100.306 935.841 89.7273H932.841C932.841 100.058 931.464 108.698 928.765 115.693L931.564 116.773ZM1005.02 177H1003.52V178.5H1005.02V177ZM1005.02 2.45454V0.95454H1003.52V2.45454H1005.02ZM1052.4 2.45454H1053.9V0.95454H1052.4V2.45454ZM1052.4 138.818H1050.9V140.318H1052.4V138.818ZM1122.97 138.818H1124.47V137.318H1122.97V138.818ZM1122.97 177V178.5H1124.47V177H1122.97ZM1006.52 177V2.45454H1003.52V177H1006.52ZM1005.02 3.95454H1052.4V0.95454H1005.02V3.95454ZM1050.9 2.45454V138.818H1053.9V2.45454H1050.9ZM1052.4 140.318H1122.97V137.318H1052.4V140.318ZM1121.47 138.818V177H1124.47V138.818H1121.47ZM1122.97 175.5H1005.02V178.5H1122.97V175.5ZM1189.51 2.45454H1191.01V0.95454H1189.51V2.45454ZM1189.51 177V178.5H1191.01V177H1189.51ZM1142.12 177H1140.62V178.5H1142.12V177ZM1142.12 2.45454V0.95454H1140.62V2.45454H1142.12ZM1188.01 2.45454V177H1191.01V2.45454H1188.01ZM1189.51 175.5H1142.12V178.5H1189.51V175.5ZM1143.62 177V2.45454H1140.62V177H1143.62ZM1142.12 3.95454H1189.51V0.95454H1142.12V3.95454ZM1369.72 138.903L1371.03 139.645L1371.03 139.642L1369.72 138.903ZM1339.13 169.159L1339.83 170.484L1339.84 170.481L1339.13 169.159ZM1253.05 169.074L1252.33 170.393L1252.34 170.396L1253.05 169.074ZM1222.54 138.733L1221.23 139.468L1221.23 139.474L1222.54 138.733ZM1222.54 40.6364L1221.23 39.8975L1221.23 39.8994L1222.54 40.6364ZM1253.05 10.3807L1253.75 11.7042L1253.76 11.7031L1253.05 10.3807ZM1339.13 10.3807L1338.42 11.7031L1338.42 11.7055L1339.13 10.3807ZM1369.72 40.6364L1368.42 41.3752L1368.42 41.3776L1369.72 40.6364ZM1328.13 63.3068L1326.73 63.8371L1326.73 63.8438L1326.74 63.8505L1328.13 63.3068ZM1315.95 46.9432L1315.08 48.1708L1315.09 48.176L1315.1 48.1811L1315.95 46.9432ZM1276.32 46.9432L1277.17 48.1769L1277.17 48.1751L1276.32 46.9432ZM1264.13 63.3068L1262.73 62.7669L1262.73 62.7728L1264.13 63.3068ZM1264.13 116.233L1262.72 116.763L1262.73 116.77L1262.73 116.777L1264.13 116.233ZM1276.32 132.597L1275.45 133.824L1275.46 133.829L1275.47 133.835L1276.32 132.597ZM1315.95 132.597L1316.8 133.83L1316.8 133.828L1315.95 132.597ZM1328.13 116.233L1326.73 115.693L1326.73 115.699L1328.13 116.233ZM1379.56 89.7273C1379.56 108.968 1375.82 125.09 1368.42 138.165L1371.03 139.642C1378.74 126.012 1382.56 109.35 1382.56 89.7273H1379.56ZM1368.42 138.162C1361 151.224 1351 161.102 1338.42 167.837L1339.84 170.481C1352.94 163.466 1363.34 153.173 1371.03 139.645L1368.42 138.162ZM1338.42 167.834C1325.82 174.528 1311.75 177.886 1296.17 177.886V180.886C1312.19 180.886 1326.76 177.427 1339.83 170.484L1338.42 167.834ZM1296.17 177.886C1280.49 177.886 1266.36 174.499 1253.76 167.751L1252.34 170.396C1265.42 177.398 1280.04 180.886 1296.17 180.886V177.886ZM1253.76 167.755C1241.24 160.964 1231.27 151.057 1223.84 137.992L1221.23 139.474C1228.92 153 1239.29 163.32 1252.33 170.392L1253.76 167.755ZM1223.84 137.998C1216.5 124.922 1212.79 108.854 1212.79 89.7273H1209.79C1209.79 109.237 1213.57 125.84 1221.23 139.468L1223.84 137.998ZM1212.79 89.7273C1212.79 70.4846 1216.5 54.3905 1223.84 41.3733L1221.23 39.8994C1213.57 53.4731 1209.79 70.1063 1209.79 89.7273H1212.79ZM1223.84 41.3752C1231.27 28.2555 1241.24 18.3803 1253.75 11.7042L1252.34 9.05715C1239.29 16.0174 1228.92 26.3127 1221.23 39.8975L1223.84 41.3752ZM1253.76 11.7031C1266.36 4.95519 1280.49 1.56818 1296.17 1.56818V-1.43182C1280.04 -1.43182 1265.42 2.05616 1252.34 9.05828L1253.76 11.7031ZM1296.17 1.56818C1311.74 1.56818 1325.81 4.95436 1338.42 11.7031L1339.84 9.05828C1326.76 2.05699 1312.19 -1.43182 1296.17 -1.43182V1.56818ZM1338.42 11.7055C1351 18.3821 1360.99 28.2572 1368.42 41.3752L1371.03 39.8975C1363.34 26.311 1352.94 16.0156 1339.83 9.05585L1338.42 11.7055ZM1368.42 41.3776C1375.82 54.3938 1379.56 70.4863 1379.56 89.7273H1382.56C1382.56 70.1046 1378.74 53.4698 1371.03 39.8952L1368.42 41.3776ZM1333.81 89.7273C1333.81 79.1496 1332.4 70.1458 1329.53 62.7631L1326.74 63.8505C1329.43 70.786 1330.81 79.3959 1330.81 89.7273H1333.81ZM1329.54 62.7765C1326.72 55.3262 1322.49 49.6012 1316.79 45.7052L1315.1 48.1811C1320.2 51.6715 1324.09 56.8556 1326.73 63.8371L1329.54 62.7765ZM1316.81 45.7156C1311.17 41.755 1304.26 39.8182 1296.17 39.8182V42.8182C1303.77 42.8182 1310.04 44.6313 1315.08 48.1708L1316.81 45.7156ZM1296.17 39.8182C1288.09 39.8182 1281.15 41.7552 1275.46 45.7113L1277.17 48.1751C1282.27 44.6311 1288.58 42.8182 1296.17 42.8182V39.8182ZM1275.46 45.7094C1269.83 49.6044 1265.6 55.3248 1262.73 62.7669L1265.53 63.8468C1268.22 56.857 1272.12 51.6683 1277.17 48.1769L1275.46 45.7094ZM1262.73 62.7728C1259.91 70.1522 1258.54 79.1524 1258.54 89.7273H1261.54C1261.54 79.3931 1262.89 70.7796 1265.53 63.8408L1262.73 62.7728ZM1258.54 89.7273C1258.54 100.303 1259.92 109.329 1262.72 116.763L1265.53 115.703C1262.89 108.705 1261.54 100.061 1261.54 89.7273H1258.54ZM1262.73 116.777C1265.6 124.162 1269.83 129.876 1275.45 133.824L1277.18 131.369C1272.12 127.817 1268.22 122.622 1265.53 115.689L1262.73 116.777ZM1275.47 133.835C1281.16 137.73 1288.09 139.636 1296.17 139.636V136.636C1288.57 136.636 1282.26 134.85 1277.16 131.359L1275.47 133.835ZM1296.17 139.636C1304.25 139.636 1311.16 137.73 1316.8 133.83L1315.09 131.363C1310.05 134.849 1303.77 136.636 1296.17 136.636V139.636ZM1316.8 133.828C1322.49 129.879 1326.72 124.16 1329.54 116.767L1326.73 115.699C1324.09 122.624 1320.2 127.814 1315.09 131.365L1316.8 133.828ZM1329.53 116.773C1332.4 109.336 1333.81 100.306 1333.81 89.7273H1330.81C1330.81 100.058 1329.43 108.698 1326.73 115.693L1329.53 116.773Z" fill="url(#paint1_linear_115_15)" mask="url(#path-1-outside-1_115_15)"/>
<defs>
<linearGradient id="paint0_linear_115_15" x1="571" y1="2" x2="569.5" y2="227.5" gradientUnits="userSpaceOnUse">
<stop stop-color="#2E2E2E"/>
<stop offset="1" stop-opacity="0"/>
</linearGradient>
<linearGradient id="paint1_linear_115_15" x1="574.5" y1="-0.499999" x2="577.5" y2="255.5" gradientUnits="userSpaceOnUse">
<stop stop-color="#AAAAAA"/>
<stop offset="1" stop-opacity="0"/>
</linearGradient>
</defs>
</svg>
